#!OML:ASF E:\inclinewalkrobotboard\Project 1\Capture day 1\Session 1\subject1.ASF
:FULLY-SPECIFIED
:DEGREES
79
root 7.05171 16.6365 36.5536 -169.792 3.09556 179.357
lowerback -8.9779 1.38571 -6.77302
upperback 2.21164 2.53768 1.63818
thorax 7.03209 0.915163 5.93407
lowerneck -7.92737 1.38875 -3.04451
upperneck 37.0478 -5.39702 7.17317
head 14.287 -3.5631 2.29243
rclavicle -9.93923e-017 -3.97569e-016
rhumerus -49.3529 -34.1783 -64.4415
rradius 25.9385
rwrist 16.4996
rhand -17.4273 -38.6675
rfingers 7.12502
rthumb 8.82305 -68.463
lclavicle -9.93923e-017 -3.97569e-016
lhumerus -28.6417 12.0539 84.8148
lradius 16.9847
lwrist -35.1759
lhand -24.7427 -18.7901
lfingers 7.12502
lthumb 1.76002 11.1824
rfemur -6.75561 2.40509 19.7129
rtibia 8.76267
rfoot -13.9809 -1.77524
rtoes -26.2918
lfemur -7.21338 -7.68735 -21.8239
ltibia 9.89144
lfoot -15.4323 4.08215
ltoes -65.009
80
root 7.05371 16.6363 36.5547 -169.764 3.10459 179.385
lowerback -8.99412 1.39991 -6.73229
upperback 2.18001 2.55241 1.63026
thorax 7.00687 0.926274 5.90411
lowerneck -7.86538 1.40957 -2.9936
upperneck 37.1011 -5.38683 7.11737
head 14.2943 -3.56657 2.26163
rclavicle -1.31198e-014 -7.15625e-015
rhumerus -49.3442 -34.1361 -64.5356
rradius 25.944
rwrist 16.408
rhand -17.9109 -38.7882
rfingers 7.12502
rthumb 8.35631 -68.6029
lclavicle -1.31198e-014 -7.15625e-015
lhumerus -28.6727 11.7147 84.9301
lradius 17.1057
lwrist -34.5794
lhand -24.6577 -18.8236
lfingers 7.12502
lthumb 1.84212 11.1482
rfemur -6.78063 2.45486 19.7537
rtibia 8.74378
rfoot -13.9786 -1.82896
rtoes -26.4458
lfemur -7.21626 -7.7605 -21.7814
ltibia 9.82766
lfoot -15.3429 4.18823
ltoes -64.9808
81
root 7.05448 16.6344 36.5541 -169.735 3.06071 179.325
lowerback -9.0059 1.34042 -6.7884
upperback 2.13287 2.47778 1.64302
thorax 6.97174 0.889725 5.93865
lowerneck -7.78104 1.46546 -3.06718
upperneck 37.1528 -5.31704 7.10926
head 14.2944 -3.55885 2.28138
rclavicle -2.18663e-015 -1.51076e-014
rhumerus -49.2931 -33.8976 -64.6507
rradius 25.9512
rwrist 16.1681
rhand -17.254 -39.1764
rfingers 7.12502
rthumb 8.99023 -68.9648
lclavicle -2.18663e-015 -1.51076e-014
lhumerus -28.7743 11.5494 85.0486
lradius 17.2358
lwrist -33.9978
lhand -24.631 -18.9062
lfingers 7.12502
lthumb 1.86794 11.0654
rfemur -6.77476 2.34512 19.6832
rtibia 8.70302
rfoot -13.9637 -1.79445
rtoes -26.4279
lfemur -7.17494 -7.79967 -21.8511
ltibia 9.67752
lfoot -15.2648 4.16413
ltoes -65.0307
82
root 7.05518 16.6332 36.5547 -169.721 3.00803 179.283
lowerback -8.99726 1.26781 -6.83528
upperback 2.10316 2.38225 1.68093
thorax 6.94631 0.841973 5.99177
lowerneck -7.75996 1.53757 -3.14485
upperneck 37.2731 -5.22077 7.05812
head 14.3376 -3.54583 2.28771
rclavicle -1.39149e-015 -7.15625e-015
rhumerus -49.2045 -33.7388 -64.6691
rradius 25.9172
rwrist 16.1379
rhand -14.6119 -39.6395
rfingers 7.12502
rthumb 11.5391 -69.3019
lclavicle -1.39149e-015 -7.15625e-015
lhumerus -28.7982 11.579 85.1636
lradius 17.3125
lwrist -33.5459
lhand -24.4993 -18.7649
lfingers 7.12502
lthumb 1.99516 11.2055
rfemur -6.77387 2.20912 19.6346
rtibia 8.67002
rfoot -13.9153 -1.78066
rtoes -26.6207
lfemur -7.15576 -7.83391 -21.8981
ltibia 9.59682
lfoot -15.2539 4.10053
ltoes -65.1028
83
root 7.05804 16.6338 36.5556 -169.757 3.03277 179.306
lowerback -8.95075 1.22841 -6.85711
upperback 2.11741 2.32581 1.74014
thorax 6.94062 0.81207 6.05854
lowerneck -7.82292 1.62899 -3.14248
upperneck 37.4571 -5.08268 6.91484
head 14.4229 -3.51179 2.24749
rclavicle -5.36719e-015 -2.38542e-015
rhumerus -49.1024 -33.6926 -64.5924
rradius 25.8959
rwrist 16.6034
rhand -17.1286 -39.0546
rfingers 7.12502
rthumb 9.11125 -68.8378
lclavicle -5.36719e-015 -2.38542e-015
lhumerus -28.7552 11.634 85.2653
lradius 17.3312
lwrist -33.2305
lhand -24.405 -18.7981
lfingers 7.12502
lthumb 2.08617 11.1714
rfemur -6.75239 2.22277 19.6678
rtibia 8.6969
rfoot -13.9342 -1.76688
rtoes -26.7141
lfemur -7.08133 -7.81711 -21.864
ltibia 9.54255
lfoot -15.2328 4.16092
ltoes -65.1721
84
root 7.06002 16.6339 36.5538 -169.787 3.02152 179.335
lowerback -8.97428 1.21709 -6.81989
upperback 2.16339 2.30849 1.75804
thorax 7.00679 0.800548 6.05681
lowerneck -7.84741 1.65848 -3.1132
upperneck 37.532 -5.04498 6.85316
head 14.4587 -3.50207 2.22197
rclavicle -2.41523e-014 -1.35174e-014
rhumerus -49.0251 -33.6692 -64.6287
rradius 25.9685
rwrist 16.864
rhand -17.3576 -38.4511
rfingers 7.12502
rthumb 8.89025 -68.2439
lclavicle -2.41523e-014 -1.35174e-014
lhumerus -28.7046 11.4491 85.3766
lradius 17.3763
lwrist -32.8811
lhand -24.3713 -19.1007
lfingers 7.12502
lthumb 2.11876 10.8685
rfemur -6.69236 2.22157 19.7046
rtibia 8.69408
rfoot -13.9593 -1.68918
rtoes -26.2963
lfemur -7.05516 -7.85233 -21.8432
ltibia 9.60632
lfoot -15.3272 4.18963
ltoes -65.0747
85
root 7.05947 16.6331 36.5531 -169.781 2.9666 179.333
lowerback -9.0379 1.22995 -6.74666
upperback 2.18402 2.32413 1.72612
thorax 7.06665 0.808725 5.98649
lowerneck -7.77121 1.64211 -3.09753
upperneck 37.5053 -5.12144 6.94681
head 14.438 -3.52618 2.24687
rclavicle 3.29983e-014 1.66979e-014
rhumerus -49.0337 -33.6969 -64.7125
rradius 26.0898
rwrist 16.7462
rhand -16.994 -38.5019
rfingers 7.12502
rthumb 9.24113 -68.2794
lclavicle 3.29983e-014 1.66979e-014
lhumerus -28.6827 10.9425 85.5839
lradius 17.5213
lwrist -32.3135
lhand -24.3805 -19.1836
lfingers 7.12502
lthumb 2.10984 10.7857
rfemur -6.68337 2.12362 19.6919
rtibia 8.67196
rfoot -13.9426 -1.59887
rtoes -26.0657
lfemur -7.11551 -7.98373 -21.8668
ltibia 9.73109
lfoot -15.4201 4.25296
ltoes -65.0377
86
root 7.05981 16.6329 36.5557 -169.775 2.95076 179.341
lowerback -9.03281 1.23931 -6.69745
upperback 2.17025 2.33108 1.70956
thorax 7.04997 0.815755 5.9409
lowerneck -7.70858 1.64431 -3.10664
upperneck 37.4896 -5.16708 7.04518
head 14.4236 -3.54068 2.28244
rclavicle -1.68967e-014 7.95139e-015
rhumerus -49.0549 -33.6925 -64.7641
rradius 26.1576
rwrist 16.6581
rhand -17.2212 -38.5984
rfingers 7.12502
rthumb 9.02195 -68.3855
lclavicle -1.68967e-014 7.95139e-015
lhumerus -28.7176 10.2323 85.915
lradius 17.8058
lwrist -31.5245
lhand -24.4241 -18.9292
lfingers 7.12502
lthumb 2.06777 11.0406
rfemur -6.73035 2.05701 19.7014
rtibia 8.71316
rfoot -13.9355 -1.5853
rtoes -26.4715
lfemur -7.12094 -8.05168 -21.8547
ltibia 9.70532
lfoot -15.3112 4.37179
ltoes -65.1911
87
root 7.0618 16.6332 36.5551 -169.816 2.97507 179.284
lowerback -9.01169 1.25967 -6.74151
upperback 2.17559 2.36437 1.673
thorax 7.03857 0.831301 5.93045
lowerneck -7.68329 1.63519 -3.0568
upperneck 37.4856 -5.2027 7.05606
head 14.4187 -3.54981 2.27266
rclavicle -1.98288e-014 9.93923e-015
rhumerus -49.1019 -33.7306 -64.7844
rradius 26.1963
rwrist 16.5942
rhand -17.6009 -38.7446
rfingers 7.12502
rthumb 8.65544 -68.5472
lclavicle -1.98288e-014 9.93923e-015
lhumerus -28.7077 9.58594 86.2042
lradius 18.0474
lwrist -30.8856
lhand -24.3335 -18.7168
lfingers 7.12502
lthumb 2.15526 11.252
rfemur -6.67854 2.07593 19.6396
rtibia 8.70892
rfoot -13.9393 -1.55496
rtoes -26.1976
lfemur -7.02639 -8.03826 -21.9313
ltibia 9.6188
lfoot -15.2361 4.37626
ltoes -65.1999
88
root 7.06311 16.6327 36.5528 -169.9 3.01499 179.084
lowerback -8.96811 1.26936 -6.93499
upperback 2.20235 2.40204 1.60318
thorax 7.03325 0.842357 5.96952
lowerneck -7.69193 1.63216 -2.99962
upperneck 37.4989 -5.22921 7.06223
head 14.4288 -3.55323 2.26089
rclavicle -1.44119e-015 -5.1684e-015
rhumerus -49.1417 -33.7614 -64.7906
rradius 26.244
rwrist 16.4847
rhand -17.6362 -38.9178
rfingers 7.12502
rthumb 8.62139 -68.7217
lclavicle -1.44119e-015 -5.1684e-015
lhumerus -28.6623 9.22367 86.3838
lradius 18.1737
lwrist -30.5632
lhand -24.2483 -18.6624
lfingers 7.12502
lthumb 2.23759 11.3056
rfemur -6.56017 2.07339 19.394
rtibia 8.66795
rfoot -13.984 -1.4629
rtoes -25.4008
lfemur -6.88224 -8.00498 -22.1981
ltibia 9.54379
lfoot -15.257 4.32232
ltoes -65.1369
89
root 7.06434 16.6317 36.5556 -169.953 3.03848 178.958
lowerback -8.87461 1.26128 -7.06798
upperback 2.21414 2.40211 1.57572
thorax 6.98905 0.839042 6.01174
lowerneck -7.75439 1.63582 -2.9685
upperneck 37.5463 -5.23368 7.04149
head 14.465 -3.55293 2.24568
rclavicle 1.54555e-014 1.90833e-014
rhumerus -49.0659 -33.6996 -64.8725
rradius 26.2415
rwrist 16.1469
rhand -17.184 -39.1305
rfingers 7.12502
rthumb 9.05782 -68.916
lclavicle 1.54555e-014 1.90833e-014
lhumerus -28.6556 8.91901 86.5819
lradius 18.345
lwrist -30.2417
lhand -24.2249 -18.4661
lfingers 7.12502
lthumb 2.26011 11.5017
rfemur -6.552 2.04208 19.2516
rtibia 8.71552
rfoot -14.0145 -1.48866
rtoes -25.6752
lfemur -6.82907 -7.97127 -22.34
ltibia 9.52834
lfoot -15.2476 4.29384
ltoes -65.1622
90
root 7.06729 16.631 36.5591 -169.969 3.05562 178.949
lowerback -8.81831 1.27284 -7.08558
upperback 2.21783 2.416 1.57009
thorax 6.95816 0.846649 6.01506
lowerneck -7.83027 1.63707 -2.89009
upperneck 37.6453 -5.24146 6.94821
head 14.5263 -3.55815 2.19121
rclavicle -1.36167e-014 5.56597e-015
rhumerus -48.9881 -33.6758 -64.9741
rradius 26.2349
rwrist 15.7697
rhand -15.1795 -39.1451
rfingers 7.12502
rthumb 10.9916 -68.8373
lclavicle -1.36167e-014 5.56597e-015
lhumerus -28.6467 8.50555 86.7939
lradius 18.5154
lwrist -29.8419
lhand -24.2561 -18.2565
lfingers 7.12502
lthumb 2.23 11.7116
rfemur -6.57113 2.11524 19.2611
rtibia 8.74603
rfoot -14.0097 -1.57518
rtoes -25.7869
lfemur -6.82673 -7.918 -22.3146
ltibia 9.52032
lfoot -15.2671 4.21156
ltoes -65.0504
91
root 7.07094 16.6308 36.5605 -169.95 3.04953 178.961
lowerback -8.81123 1.27749 -7.09829
upperback 2.20905 2.42212 1.58134
thorax 6.94282 0.849825 6.03459
lowerneck -7.89949 1.65245 -2.90516
upperneck 37.7225 -5.24135 6.9646
head 14.5803 -3.55951 2.20049
rclavicle -1.39646e-014 1.78906e-014
rhumerus -49.0505 -33.7788 -64.8475
rradius 26.2799
rwrist 16.1106
rhand -17.1948 -38.8992
rfingers 7.12502
rthumb 9.0474 -68.6852
lclavicle -1.39646e-014 1.78906e-014
lhumerus -28.6068 8.24852 86.9618
lradius 18.5996
lwrist -29.576
lhand -24.329 -18.4261
lfingers 7.12502
lthumb 2.15965 11.5427
rfemur -6.58678 2.30204 19.2802
rtibia 8.74062
rfoot -14.0144 -1.59788
rtoes -24.6093
lfemur -6.87011 -7.81162 -22.2622
ltibia 9.52719
lfoot -15.3368 4.08701
ltoes -65.0111
92
root 7.07363 16.6311 36.5639 -169.86 2.96735 179.077
lowerback -8.7846 1.2258 -7.02548
upperback 2.15749 2.33535 1.67036
thorax 6.8843 0.812615 6.07438
lowerneck -7.90347 1.67674 -3.08183
upperneck 37.6856 -5.19676 7.08972
head 14.5667 -3.54862 2.29116
rclavicle -2.05245e-014 -1.78906e-014
rhumerus -49.1494 -33.8542 -64.5449
rradius 26.3599
rwrist 16.5141
rhand -17.002 -38.1212
rfingers 7.12502
rthumb 9.23342 -67.8991
lclavicle -2.05245e-014 -1.78906e-014
lhumerus -28.5847 8.35424 87.084
lradius 18.6451
lwrist -29.524
lhand -24.2703 -18.6037
lfingers 7.12502
lthumb 2.2163 11.3645
rfemur -6.72245 2.39177 19.4195
rtibia 8.82678
rfoot -14.0124 -1.57228
rtoes -23.3114
lfemur -7.10622 -7.70727 -22.0687
ltibia 9.73875
lfoot -15.3954 3.99338
ltoes -65.1594
